<svg width="17" height="21" viewBox="0 0 17 21" fill="none" xmlns="http://www.w3.org/2000/svg">
<path fill-rule="evenodd" clip-rule="evenodd" d="M16.7405 17.114C16.7405 20.5973 11.9635 21 8.3713 21L8.11423 20.9998C5.82556 20.9942 0 20.8497 0 17.0928C0 13.6805 4.58498 13.2245 8.14987 13.2073L8.62835 13.207C10.9169 13.2126 16.7405 13.3571 16.7405 17.114ZM8.3713 14.7921C3.86807 14.7921 1.58527 15.5657 1.58527 17.0928C1.58527 18.6337 3.86807 19.4147 8.3713 19.4147C12.8735 19.4147 15.1552 18.6411 15.1552 17.114C15.1552 15.5731 12.8735 14.7921 8.3713 14.7921ZM8.3713 0C11.4657 0 13.9821 2.51741 13.9821 5.61187C13.9821 8.70632 11.4657 11.2227 8.3713 11.2227H8.33748C5.24937 11.2132 2.74781 8.69469 2.75834 5.60869C2.75834 2.51741 5.27579 0 8.3713 0ZM8.3713 1.50918C6.10858 1.50918 4.26753 3.34915 4.26753 5.61187C4.26016 7.86718 6.08745 9.7061 8.34065 9.71455L8.3713 10.4691V9.71455C10.633 9.71455 12.4729 7.87352 12.4729 5.61187C12.4729 3.34915 10.633 1.50918 8.3713 1.50918Z" fill="white"/>
</svg>
