<svg width="21" height="21" viewBox="0 0 21 21" fill="none" xmlns="http://www.w3.org/2000/svg">
<path fill-rule="evenodd" clip-rule="evenodd" d="M15.077 0C18.6197 0 21 2.48679 21 6.18767V14.8123C21 18.5132 18.6197 21 15.077 21H5.92298C2.38033 21 0 18.5132 0 14.8123V6.18767C0 2.48679 2.38033 0 5.92298 0H15.077ZM15.077 1.46512H5.92298C3.21544 1.46512 1.46512 3.318 1.46512 6.18767V14.8123C1.46512 17.682 3.21544 19.5349 5.92298 19.5349H15.077C17.7855 19.5349 19.5349 17.682 19.5349 14.8123V6.18767C19.5349 3.318 17.7855 1.46512 15.077 1.46512ZM5.97875 8.01174C6.38312 8.01174 6.71131 8.33993 6.71131 8.7443V15.4448C6.71131 15.8491 6.38312 16.1773 5.97875 16.1773C5.57438 16.1773 5.24619 15.8491 5.24619 15.4448V8.7443C5.24619 8.33993 5.57438 8.01174 5.97875 8.01174ZM10.5372 4.80412C10.9416 4.80412 11.2698 5.1323 11.2698 5.53667V15.4438C11.2698 15.8482 10.9416 16.1763 10.5372 16.1763C10.1328 16.1763 9.80466 15.8482 9.80466 15.4438V5.53667C9.80466 5.1323 10.1328 4.80412 10.5372 4.80412ZM15.0208 11.5524C15.4251 11.5524 15.7533 11.8806 15.7533 12.285V15.4438C15.7533 15.8482 15.4251 16.1763 15.0208 16.1763C14.6164 16.1763 14.2882 15.8482 14.2882 15.4438V12.285C14.2882 11.8806 14.6164 11.5524 15.0208 11.5524Z" fill="white"/>
</svg>
