<svg width="21" height="21" viewBox="0 0 21 21" fill="none" xmlns="http://www.w3.org/2000/svg">
<path fill-rule="evenodd" clip-rule="evenodd" d="M10.2419 0C12.8399 0 14.9582 2.10301 14.9865 4.6976L15.2167 4.69867C18.1168 4.69867 20.4751 7.05593 20.4751 9.95395V15.7458C20.4751 18.6427 18.1168 21 15.2167 21H5.25843C2.35936 21 0 18.6427 0 15.7458V9.95395C0 7.05593 2.35936 4.69867 5.25843 4.69867L5.47263 4.69772L5.47929 4.49352C5.54522 3.30233 6.03582 2.20956 6.87764 1.37656C7.77854 0.483003 8.98815 0.0367502 10.2419 0ZM15.2167 6.27368L14.9867 6.27273L14.9868 7.93384C14.9868 8.36854 14.634 8.72134 14.1993 8.72134C13.7646 8.72134 13.4118 8.36854 13.4118 7.93384L13.4117 6.27273H7.04659L7.04669 7.93384C7.04669 8.36854 6.69389 8.72134 6.25919 8.72134C5.82448 8.72134 5.47168 8.36854 5.47168 7.93384L5.47158 6.27273L5.25843 6.27368C3.22772 6.27368 1.57501 7.92429 1.57501 9.95395V15.7458C1.57501 17.7744 3.22772 19.425 5.25843 19.425H15.2167C17.2474 19.425 18.9001 17.7744 18.9001 15.7458V9.95395C18.9001 7.92429 17.2474 6.27368 15.2167 6.27368ZM10.2387 1.57501C9.38715 1.60441 8.58915 1.89841 7.98644 2.49481C7.39249 3.0836 7.05959 3.86409 7.04704 4.69762L13.4096 4.69772L13.4064 4.56398C13.3098 2.89991 11.9266 1.57501 10.2387 1.57501Z" fill="white"/>
</svg>
