<svg width="21" height="21" viewBox="0 0 21 21" fill="none" xmlns="http://www.w3.org/2000/svg">
<path fill-rule="evenodd" clip-rule="evenodd" d="M10.4998 0C16.2894 0 20.9998 4.71036 20.9998 10.5C20.9998 16.2896 16.2894 21 10.4998 21C4.71011 21 -0.000244141 16.2896 -0.000244141 10.5C-0.000244141 4.71036 4.71011 0 10.4998 0ZM10.4998 1.52012C5.54821 1.52012 1.51988 5.54946 1.51988 10.5C1.51988 15.4515 5.54821 19.4799 10.4998 19.4799C15.4513 19.4799 19.4796 15.4515 19.4796 10.5C19.4796 5.54946 15.4513 1.52012 10.4998 1.52012ZM14.4233 6.57697C14.6229 6.77762 14.6959 7.07253 14.6108 7.34108L12.9974 12.4984C12.9234 12.7365 12.736 12.923 12.4988 12.997L7.34155 14.6113C7.26655 14.6346 7.18953 14.6458 7.11454 14.6458C6.91591 14.6458 6.72134 14.5677 6.57642 14.4238C6.37678 14.2232 6.30381 13.9283 6.38894 13.6597L8.00331 8.50246C8.07729 8.26329 8.26376 8.07784 8.5009 8.00386L13.6582 6.38948C13.9287 6.30334 14.2226 6.37732 14.4233 6.57697ZM12.7268 8.27343L9.33494 9.33548L8.27389 12.7274L11.6648 11.6653L12.7268 8.27343Z" fill="white"/>
</svg>
