<svg width="24" height="24" viewBox="0 0 24 24" fill="none" xmlns="http://www.w3.org/2000/svg">
<path opacity="0.4" d="M6.13452 15.372L9.57498 10.9005L13.4994 13.9832L16.8662 9.63794" stroke="black" stroke-width="1.5" stroke-linecap="round" stroke-linejoin="round"/>
<path d="M20.7903 5.41894C22.0105 5.41894 22.9997 4.42973 22.9997 3.20947C22.9997 1.98921 22.0105 1 20.7903 1C19.57 1 18.5808 1.98921 18.5808 3.20947C18.5808 4.42973 19.57 5.41894 20.7903 5.41894Z" stroke="black" stroke-width="1.5" stroke-linecap="round" stroke-linejoin="round"/>
<path d="M14.9617 1.96796H6.60784C3.14634 1.96796 1 4.41942 1 7.88092V17.1712C1 20.6327 3.10426 23.0736 6.60784 23.0736H16.4978C19.9593 23.0736 22.1057 20.6327 22.1057 17.1712V9.08034" stroke="black" stroke-width="1.5" stroke-linecap="round" stroke-linejoin="round"/>
</svg>
