<svg width="15" height="15" viewBox="0 0 15 15" fill="none" xmlns="http://www.w3.org/2000/svg">
<path fill-rule="evenodd" clip-rule="evenodd" d="M9.09172 0.656571L9.63989 1.20475C9.85211 1.41547 10.1356 1.53245 10.437 1.53245H11.2079C12.4535 1.53245 13.4666 2.54556 13.4666 3.79114V4.56128C13.4666 4.86199 13.5836 5.1462 13.7958 5.35992L14.3342 5.8991C14.7609 6.32279 14.9979 6.88896 15.0002 7.49263C15.0024 8.09629 14.7692 8.66396 14.344 9.09216L13.7943 9.64033C13.5836 9.85255 13.4666 10.1353 13.4666 10.4367V11.2084C13.4666 12.4532 12.4535 13.4663 11.2087 13.4663H10.4355C10.1386 13.4663 9.84836 13.5863 9.63764 13.7955L9.09922 14.3339C8.65903 14.7771 8.07861 14.9991 7.49819 14.9991C6.92302 14.9991 6.34785 14.7816 5.90766 14.3452C5.90166 14.3392 5.89566 14.3332 5.88966 14.3264L5.35723 13.7948C5.14501 13.584 4.86155 13.4671 4.56009 13.4663H3.7907C2.54512 13.4663 1.53276 12.4532 1.53276 11.2084V10.4352C1.53276 10.1338 1.41503 9.85105 1.20356 9.63808L0.664383 9.09965C-0.211496 8.22827 -0.221994 6.80947 0.638137 5.92459L0.658384 5.90435L1.20431 5.35692C1.41503 5.1447 1.53276 4.86049 1.53276 4.55978V3.79114C1.53276 2.54631 2.54512 1.5332 3.78995 1.53245H4.56234C4.86305 1.53245 5.14651 1.41472 5.36173 1.2025L5.89791 0.66482C6.77454 -0.217808 8.20759 -0.222307 9.09172 0.656571ZM6.69505 1.45896L6.15587 1.99964C5.72543 2.42483 5.16076 2.65729 4.56234 2.65729H3.7907C3.16604 2.65804 2.65761 3.16647 2.65761 3.79114V4.55978C2.65761 5.16045 2.42439 5.72512 2.00145 6.15106L1.46902 6.68424C1.46377 6.69024 1.45852 6.69474 1.45327 6.69999C1.01308 7.14317 1.01533 7.86233 1.45852 8.30251L1.99995 8.84394C2.42439 9.26988 2.65761 9.83455 2.65761 10.4352V11.2084C2.65761 11.833 3.16529 12.3415 3.7907 12.3415H4.56084C5.16226 12.3422 5.72693 12.5754 6.15212 12.9991L6.6928 13.5383L6.7078 13.5548C7.15024 13.9867 7.86264 13.9815 8.30208 13.5398L8.8435 12.9999C9.26344 12.5807 9.84386 12.3415 10.4355 12.3415H11.2079C11.8333 12.3415 12.3418 11.833 12.3418 11.2084V10.4367C12.3418 9.83605 12.5742 9.27138 12.9987 8.84619L13.5386 8.30551C13.7583 8.08504 13.8761 7.79933 13.8753 7.49638C13.8746 7.19417 13.7553 6.90996 13.5401 6.69549L12.9994 6.15406C12.5742 5.72587 12.3418 5.16195 12.3418 4.56128V3.79114C12.3418 3.16572 11.8333 2.65729 11.2079 2.65729H10.437C9.83636 2.65729 9.27169 2.42408 8.8465 2.00189L8.30508 1.45971C7.85439 1.01352 7.13524 1.01577 6.69505 1.45896ZM9.37638 8.62324C9.79107 8.62324 10.1263 8.95845 10.1263 9.37314C10.1263 9.78783 9.79107 10.123 9.37638 10.123C8.96169 10.123 8.62273 9.78783 8.62273 9.37314C8.62273 8.95845 8.95494 8.62324 9.36963 8.62324H9.37638ZM9.82467 5.1747C10.0444 5.39442 10.0444 5.75062 9.82467 5.97034L5.96945 9.8248C5.85996 9.93504 5.71598 9.98978 5.572 9.98978C5.42802 9.98978 5.28404 9.93504 5.17456 9.8248C4.95484 9.60508 4.95484 9.24963 5.17456 9.02991L9.02903 5.1747C9.24875 4.95498 9.60495 4.95498 9.82467 5.1747ZM5.6269 4.87376C6.04159 4.87376 6.37679 5.20897 6.37679 5.62366C6.37679 6.03835 6.04159 6.37356 5.6269 6.37356C5.2122 6.37356 4.87325 6.03835 4.87325 5.62366C4.87325 5.20897 5.20545 4.87376 5.62015 4.87376H5.6269Z" fill="white"/>
</svg>
