<svg width="15" height="15" viewBox="0 0 15 15" fill="none" xmlns="http://www.w3.org/2000/svg">
<path fill-rule="evenodd" clip-rule="evenodd" d="M3.9222 4.95745C4.22471 4.95745 4.47022 5.20296 4.47022 5.50546C4.47022 5.80797 4.22471 6.05348 3.9222 6.05348H3.24047C2.05749 6.05348 1.09591 7.01506 1.09591 8.19731V11.7594C1.09591 12.9424 2.05749 13.904 3.24047 13.904H11.373C12.5553 13.904 13.5176 12.9424 13.5176 11.7594V8.19074C13.5176 7.01214 12.5589 6.05348 11.381 6.05348H10.692C10.3895 6.05348 10.144 5.80797 10.144 5.50546C10.144 5.20296 10.3895 4.95745 10.692 4.95745H11.381C13.1632 4.95745 14.6136 6.40786 14.6136 8.19074V11.7594C14.6136 13.5467 13.1595 15 11.373 15H3.24047C1.45394 15 -0.00012207 13.5467 -0.00012207 11.7594V8.19731C-0.00012207 6.41078 1.45394 4.95745 3.24047 4.95745H3.9222ZM7.69444 0.155088L9.82512 2.29454C10.0385 2.50936 10.0378 2.8557 9.82366 3.06906C9.60884 3.28243 9.2625 3.28242 9.04913 3.0676L7.85402 1.86836L7.85446 9.88732H6.75843L6.75799 1.86836L5.56449 3.0676C5.45781 3.17574 5.31679 3.22908 5.1765 3.22908C5.03694 3.22908 4.89664 3.17575 4.78996 3.06906C4.57587 2.8557 4.57441 2.50936 4.7885 2.29454L6.91845 0.155088C7.12378 -0.051696 7.48912 -0.051696 7.69444 0.155088Z" fill="black"/>
</svg>
