<svg width="17" height="15" viewBox="0 0 17 15" fill="none" xmlns="http://www.w3.org/2000/svg">
<path d="M12.4125 2.28293C12.7319 2.28293 12.9958 2.52027 13.0376 2.8282L13.0434 2.91381L13.0433 12.8397L15.3954 10.4781C15.6412 10.2312 16.0407 10.2303 16.2876 10.4761C16.5121 10.6995 16.5333 11.05 16.3506 11.2974L16.2897 11.3683L12.8595 14.8143C12.8389 14.8346 12.8178 14.853 12.7956 14.87L12.8595 14.8143C12.8286 14.8454 12.7952 14.8726 12.76 14.8959C12.7477 14.9035 12.735 14.9113 12.7219 14.9187C12.7098 14.926 12.6975 14.9324 12.685 14.9384C12.6727 14.9438 12.6602 14.9493 12.6475 14.9544C12.6313 14.9613 12.6148 14.9672 12.5981 14.9723C12.5882 14.975 12.5781 14.9778 12.5679 14.9804C12.5497 14.9854 12.5315 14.9891 12.5131 14.9921C12.5045 14.9931 12.4955 14.9943 12.4864 14.9954C12.4657 14.9982 12.4452 14.9996 12.4246 15C12.4205 14.9996 12.4165 14.9997 12.4125 14.9997L12.4002 15C12.3796 14.9996 12.3591 14.9982 12.3387 14.9958L12.4125 14.9997C12.3781 14.9997 12.3444 14.9969 12.3115 14.9916C12.2933 14.9891 12.2751 14.9854 12.257 14.9808C12.2474 14.9779 12.2378 14.9752 12.2283 14.9723C12.2102 14.9673 12.1923 14.9609 12.1746 14.9538C12.1649 14.9493 12.1555 14.9452 12.1463 14.9409C12.1318 14.9347 12.1172 14.9272 12.1029 14.9192C12.09 14.9113 12.0772 14.9035 12.0648 14.8953C12.0551 14.8895 12.0455 14.8827 12.0361 14.8757L12.0294 14.87C12.0072 14.853 11.9861 14.8346 11.9664 14.8149L11.9653 14.8143L8.53514 11.3683C8.28933 11.1213 8.29026 10.7219 8.5372 10.4761C8.76169 10.2526 9.11223 10.2331 9.35878 10.4169L9.4294 10.4781L11.7815 12.8414L11.7816 2.91381C11.7816 2.56539 12.0641 2.28293 12.4125 2.28293ZM4.06092 0.000350177L4.07321 0C4.09377 0.000394975 4.11431 0.00178878 4.13476 0.00418142L4.06092 0.000350177C4.09529 0.000350177 4.12902 0.0030984 4.16189 0.00838707C4.17987 0.0108448 4.19792 0.0145593 4.21582 0.0190689C4.22634 0.0221552 4.23706 0.0251649 4.24767 0.0284468C4.26423 0.033117 4.28026 0.0387938 4.29609 0.0451374C4.30753 0.0502321 4.31912 0.0552959 4.33052 0.0606911C4.34406 0.0665489 4.3574 0.073442 4.37054 0.0808425C4.38178 0.0877659 4.39291 0.0945106 4.40382 0.101583C4.41503 0.108252 4.42627 0.116058 4.43729 0.12427L4.50814 0.185696L7.93828 3.63172C8.18408 3.87866 8.18316 4.27811 7.93621 4.52392C7.71172 4.74737 7.36119 4.76693 7.11463 4.5831L7.04401 4.52185L4.69124 2.15762L4.6918 12.0862C4.6918 12.4346 4.40935 12.7171 4.06092 12.7171C3.74153 12.7171 3.47757 12.4797 3.4358 12.1718L3.43004 12.0862L3.42948 2.15846L1.07801 4.52185C0.854554 4.74635 0.504115 4.76752 0.256713 4.58484L0.185813 4.52392C-0.0386809 4.30046 -0.0598523 3.95002 0.122831 3.70262L0.183752 3.63172L3.61388 0.185696L3.65103 0.151631C3.65975 0.144168 3.66868 0.136939 3.67781 0.129954L3.61388 0.185696C3.64483 0.154605 3.67821 0.127415 3.71341 0.104128C3.7257 0.0964757 3.73846 0.0886641 3.75151 0.0813039C3.76363 0.0739988 3.77596 0.067589 3.78843 0.0616131C3.80075 0.0561608 3.81325 0.0506592 3.82595 0.0455588C3.84209 0.0386585 3.85864 0.0328163 3.87536 0.0276845C3.88553 0.0249523 3.89595 0.0220397 3.90648 0.0193915C3.92343 0.0147366 3.94056 0.0111778 3.95779 0.00833573C3.96815 0.00703986 3.9783 0.00562676 3.98853 0.00445826C4.008 0.00178284 4.02798 0.00042736 4.04798 1.67148e-05C4.05239 0.0003926 4.05665 0.000350177 4.06092 0.000350177Z" fill="black"/>
</svg>
