<svg width="23" height="21" viewBox="0 0 23 21" fill="none" xmlns="http://www.w3.org/2000/svg">
<path fill-rule="evenodd" clip-rule="evenodd" d="M16.0372 0C19.6594 0 22.6057 2.94633 22.6057 6.56955V14.4304C22.6057 18.0526 19.6594 21 16.0372 21H6.56955C2.94743 21 0 18.0526 0 14.4304V6.56955C0 2.94633 2.94743 0 6.56955 0H16.0372ZM16.0372 1.64294H6.56955C3.85323 1.64294 1.64294 3.85323 1.64294 6.56955V14.4304C1.64294 17.1468 3.85323 19.3571 6.56955 19.3571H16.0372C18.7536 19.3571 20.9628 17.1468 20.9628 14.4304V14.1238L17.3506 14.1244C15.2728 14.1244 13.5817 12.4344 13.5806 10.3577C13.5806 8.27886 15.2717 6.58773 17.3506 6.58664L20.9628 6.58598V6.56955C20.9628 3.85323 18.7536 1.64294 16.0372 1.64294ZM20.9628 8.22892L17.3506 8.22957C16.1775 8.23067 15.2235 9.18466 15.2235 10.3566C15.2235 11.5275 16.1786 12.4815 17.3506 12.4815L20.9628 12.4808V8.22892ZM17.8518 9.46725C18.3053 9.46725 18.6733 9.83527 18.6733 10.2887C18.6733 10.7422 18.3053 11.1102 17.8518 11.1102H17.5101C17.0566 11.1102 16.6886 10.7422 16.6886 10.2887C16.6886 9.83527 17.0566 9.46725 17.5101 9.46725H17.8518ZM11.7032 4.97054C12.1566 4.97054 12.5246 5.33855 12.5246 5.792C12.5246 6.24545 12.1566 6.61347 11.7032 6.61347H5.7897C5.33625 6.61347 4.96824 6.24545 4.96824 5.792C4.96824 5.33855 5.33625 4.97054 5.7897 4.97054H11.7032Z" fill="white"/>
</svg>
